<mxfile host="app.diagrams.net" modified="2022-06-14T21:03:48.164Z" agent="5.0 (Windows NT 10.0; Win64; x64) AppleWebKit/537.36 (KHTML, like Gecko) Chrome/102.0.0.0 Safari/537.36" etag="nXFfWcSv6PY6sMWLZRuL" version="20.0.1" type="github">
  <diagram id="B1igxieaISC9VuSWq6be" name="Page-1">
    <mxGraphModel dx="1792" dy="1112" grid="1" gridSize="10" guides="1" tooltips="1" connect="1" arrows="1" fold="1" page="1" pageScale="1" pageWidth="2000" pageHeight="2000" math="0" shadow="0">
      <root>
        <mxCell id="0" />
        <mxCell id="1" parent="0" />
        <mxCell id="BWPA2W5dskU-JX_1lQMr-1" value="EMPLEADO" style="rounded=0;whiteSpace=wrap;html=1;fillColor=#dae8fc;strokeColor=#6c8ebf;" vertex="1" parent="1">
          <mxGeometry x="880" y="380" width="120" height="60" as="geometry" />
        </mxCell>
        <mxCell id="BWPA2W5dskU-JX_1lQMr-11" style="edgeStyle=orthogonalEdgeStyle;rounded=0;orthogonalLoop=1;jettySize=auto;html=1;exitX=1;exitY=0.5;exitDx=0;exitDy=0;entryX=0.5;entryY=1;entryDx=0;entryDy=0;" edge="1" parent="1" source="BWPA2W5dskU-JX_1lQMr-2" target="BWPA2W5dskU-JX_1lQMr-5">
          <mxGeometry relative="1" as="geometry">
            <mxPoint x="1130" y="590" as="targetPoint" />
          </mxGeometry>
        </mxCell>
        <mxCell id="BWPA2W5dskU-JX_1lQMr-2" value="VISITANTE" style="rounded=0;whiteSpace=wrap;html=1;fillColor=#fff2cc;strokeColor=#d6b656;" vertex="1" parent="1">
          <mxGeometry x="880" y="610" width="120" height="60" as="geometry" />
        </mxCell>
        <mxCell id="BWPA2W5dskU-JX_1lQMr-3" value="ÁREAS DE LA EMPRESA" style="rounded=0;whiteSpace=wrap;html=1;fillColor=#ffe6cc;strokeColor=#d79b00;" vertex="1" parent="1">
          <mxGeometry x="1280" y="850" width="120" height="60" as="geometry" />
        </mxCell>
        <mxCell id="BWPA2W5dskU-JX_1lQMr-18" style="edgeStyle=orthogonalEdgeStyle;rounded=0;orthogonalLoop=1;jettySize=auto;html=1;exitX=0.5;exitY=1;exitDx=0;exitDy=0;entryX=0.5;entryY=0;entryDx=0;entryDy=0;" edge="1" parent="1" source="BWPA2W5dskU-JX_1lQMr-4" target="BWPA2W5dskU-JX_1lQMr-17">
          <mxGeometry relative="1" as="geometry" />
        </mxCell>
        <mxCell id="BWPA2W5dskU-JX_1lQMr-4" value="TARJETA INTELIGENTE" style="rounded=0;whiteSpace=wrap;html=1;" vertex="1" parent="1">
          <mxGeometry x="1280" y="500" width="120" height="60" as="geometry" />
        </mxCell>
        <mxCell id="BWPA2W5dskU-JX_1lQMr-15" style="edgeStyle=orthogonalEdgeStyle;rounded=0;orthogonalLoop=1;jettySize=auto;html=1;exitX=1;exitY=0.5;exitDx=0;exitDy=0;entryX=0;entryY=0.5;entryDx=0;entryDy=0;" edge="1" parent="1" source="BWPA2W5dskU-JX_1lQMr-5" target="BWPA2W5dskU-JX_1lQMr-4">
          <mxGeometry relative="1" as="geometry" />
        </mxCell>
        <mxCell id="BWPA2W5dskU-JX_1lQMr-5" value="TIENEN" style="rhombus;whiteSpace=wrap;html=1;" vertex="1" parent="1">
          <mxGeometry x="1090" y="490" width="80" height="80" as="geometry" />
        </mxCell>
        <mxCell id="BWPA2W5dskU-JX_1lQMr-19" style="edgeStyle=orthogonalEdgeStyle;rounded=0;orthogonalLoop=1;jettySize=auto;html=1;exitX=0.5;exitY=1;exitDx=0;exitDy=0;entryX=0.5;entryY=0;entryDx=0;entryDy=0;" edge="1" parent="1" source="BWPA2W5dskU-JX_1lQMr-17" target="BWPA2W5dskU-JX_1lQMr-3">
          <mxGeometry relative="1" as="geometry" />
        </mxCell>
        <mxCell id="BWPA2W5dskU-JX_1lQMr-17" value="PERMITE INGRESO A" style="rhombus;whiteSpace=wrap;html=1;" vertex="1" parent="1">
          <mxGeometry x="1290" y="670" width="100" height="100" as="geometry" />
        </mxCell>
        <mxCell id="BWPA2W5dskU-JX_1lQMr-20" value="NOMBRE" style="ellipse;whiteSpace=wrap;html=1;" vertex="1" parent="1">
          <mxGeometry x="660" y="170" width="110" height="70" as="geometry" />
        </mxCell>
        <mxCell id="BWPA2W5dskU-JX_1lQMr-21" value="APELLIDO" style="ellipse;whiteSpace=wrap;html=1;fillColor=#dae8fc;strokeColor=#6c8ebf;" vertex="1" parent="1">
          <mxGeometry x="800" y="170" width="110" height="70" as="geometry" />
        </mxCell>
        <mxCell id="BWPA2W5dskU-JX_1lQMr-22" value="CARGO" style="ellipse;whiteSpace=wrap;html=1;fillColor=#dae8fc;strokeColor=#6c8ebf;" vertex="1" parent="1">
          <mxGeometry x="940" y="170" width="110" height="70" as="geometry" />
        </mxCell>
        <mxCell id="BWPA2W5dskU-JX_1lQMr-23" value="ÁRERA DE TRABAJO" style="ellipse;whiteSpace=wrap;html=1;" vertex="1" parent="1">
          <mxGeometry x="460" y="280" width="110" height="70" as="geometry" />
        </mxCell>
        <mxCell id="BWPA2W5dskU-JX_1lQMr-24" value="PERMISOS DE ACCESO" style="ellipse;whiteSpace=wrap;html=1;" vertex="1" parent="1">
          <mxGeometry x="460" y="390" width="110" height="70" as="geometry" />
        </mxCell>
        <mxCell id="BWPA2W5dskU-JX_1lQMr-28" value="" style="endArrow=none;html=1;rounded=0;entryX=1;entryY=0.5;entryDx=0;entryDy=0;exitX=0;exitY=0.75;exitDx=0;exitDy=0;" edge="1" parent="1" source="BWPA2W5dskU-JX_1lQMr-1" target="BWPA2W5dskU-JX_1lQMr-24">
          <mxGeometry width="50" height="50" relative="1" as="geometry">
            <mxPoint x="260" y="420" as="sourcePoint" />
            <mxPoint x="310" y="370" as="targetPoint" />
          </mxGeometry>
        </mxCell>
        <mxCell id="BWPA2W5dskU-JX_1lQMr-29" value="" style="endArrow=none;html=1;rounded=0;entryX=1;entryY=1;entryDx=0;entryDy=0;exitX=0;exitY=0.5;exitDx=0;exitDy=0;" edge="1" parent="1" source="BWPA2W5dskU-JX_1lQMr-1" target="BWPA2W5dskU-JX_1lQMr-23">
          <mxGeometry width="50" height="50" relative="1" as="geometry">
            <mxPoint x="880" y="350" as="sourcePoint" />
            <mxPoint x="649.9999999999959" y="270" as="targetPoint" />
          </mxGeometry>
        </mxCell>
        <mxCell id="BWPA2W5dskU-JX_1lQMr-30" value="" style="endArrow=none;html=1;rounded=0;entryX=0.5;entryY=1;entryDx=0;entryDy=0;exitX=0.25;exitY=0;exitDx=0;exitDy=0;" edge="1" parent="1" source="BWPA2W5dskU-JX_1lQMr-1" target="BWPA2W5dskU-JX_1lQMr-20">
          <mxGeometry width="50" height="50" relative="1" as="geometry">
            <mxPoint x="945.93" y="335.37" as="sourcePoint" />
            <mxPoint x="700.0024616091633" y="200.0026388405596" as="targetPoint" />
          </mxGeometry>
        </mxCell>
        <mxCell id="BWPA2W5dskU-JX_1lQMr-31" value="" style="endArrow=none;html=1;rounded=0;entryX=0.5;entryY=1;entryDx=0;entryDy=0;exitX=0.5;exitY=0;exitDx=0;exitDy=0;" edge="1" parent="1" source="BWPA2W5dskU-JX_1lQMr-1" target="BWPA2W5dskU-JX_1lQMr-21">
          <mxGeometry width="50" height="50" relative="1" as="geometry">
            <mxPoint x="1065" y="400" as="sourcePoint" />
            <mxPoint x="860" y="210" as="targetPoint" />
          </mxGeometry>
        </mxCell>
        <mxCell id="BWPA2W5dskU-JX_1lQMr-32" value="" style="endArrow=none;html=1;rounded=0;entryX=0.5;entryY=1;entryDx=0;entryDy=0;exitX=0.75;exitY=0;exitDx=0;exitDy=0;" edge="1" parent="1" source="BWPA2W5dskU-JX_1lQMr-1" target="BWPA2W5dskU-JX_1lQMr-22">
          <mxGeometry width="50" height="50" relative="1" as="geometry">
            <mxPoint x="1085" y="390" as="sourcePoint" />
            <mxPoint x="990" y="200" as="targetPoint" />
          </mxGeometry>
        </mxCell>
        <mxCell id="BWPA2W5dskU-JX_1lQMr-33" value="ID DEL EMPLEADO" style="ellipse;whiteSpace=wrap;html=1;" vertex="1" parent="1">
          <mxGeometry x="460" y="170" width="110" height="70" as="geometry" />
        </mxCell>
        <mxCell id="BWPA2W5dskU-JX_1lQMr-34" value="" style="endArrow=none;html=1;rounded=0;entryX=1;entryY=1;entryDx=0;entryDy=0;exitX=0;exitY=0.25;exitDx=0;exitDy=0;" edge="1" parent="1" source="BWPA2W5dskU-JX_1lQMr-1" target="BWPA2W5dskU-JX_1lQMr-33">
          <mxGeometry width="50" height="50" relative="1" as="geometry">
            <mxPoint x="850" y="370" as="sourcePoint" />
            <mxPoint x="660" y="250" as="targetPoint" />
          </mxGeometry>
        </mxCell>
        <mxCell id="BWPA2W5dskU-JX_1lQMr-35" value="MOTIVO DE VISITA" style="ellipse;whiteSpace=wrap;html=1;fillColor=#fff2cc;strokeColor=#d6b656;" vertex="1" parent="1">
          <mxGeometry x="460" y="680" width="110" height="70" as="geometry" />
        </mxCell>
        <mxCell id="BWPA2W5dskU-JX_1lQMr-36" value="PERSONA QUE INVITA" style="ellipse;whiteSpace=wrap;html=1;fillColor=#fff2cc;strokeColor=#d6b656;" vertex="1" parent="1">
          <mxGeometry x="460" y="770" width="110" height="70" as="geometry" />
        </mxCell>
        <mxCell id="BWPA2W5dskU-JX_1lQMr-37" value="PERMISOS DE ACCESO" style="ellipse;whiteSpace=wrap;html=1;fillColor=#fff2cc;strokeColor=#d6b656;" vertex="1" parent="1">
          <mxGeometry x="460" y="590" width="110" height="70" as="geometry" />
        </mxCell>
        <mxCell id="BWPA2W5dskU-JX_1lQMr-38" value="NOMBRE" style="ellipse;whiteSpace=wrap;html=1;fillColor=#fff2cc;strokeColor=#d6b656;" vertex="1" parent="1">
          <mxGeometry x="660" y="770" width="110" height="70" as="geometry" />
        </mxCell>
        <mxCell id="BWPA2W5dskU-JX_1lQMr-39" value="APELLIDO" style="ellipse;whiteSpace=wrap;html=1;fillColor=#fff2cc;strokeColor=#d6b656;" vertex="1" parent="1">
          <mxGeometry x="800" y="770" width="110" height="70" as="geometry" />
        </mxCell>
        <mxCell id="BWPA2W5dskU-JX_1lQMr-40" value="CC" style="ellipse;whiteSpace=wrap;html=1;fillColor=#fff2cc;strokeColor=#d6b656;" vertex="1" parent="1">
          <mxGeometry x="940" y="770" width="110" height="70" as="geometry" />
        </mxCell>
        <mxCell id="BWPA2W5dskU-JX_1lQMr-41" value="" style="endArrow=none;html=1;rounded=0;entryX=0.835;entryY=1.072;entryDx=0;entryDy=0;exitX=0.5;exitY=0;exitDx=0;exitDy=0;entryPerimeter=0;" edge="1" parent="1" source="BWPA2W5dskU-JX_1lQMr-40" target="BWPA2W5dskU-JX_1lQMr-2">
          <mxGeometry width="50" height="50" relative="1" as="geometry">
            <mxPoint x="1020" y="800" as="sourcePoint" />
            <mxPoint x="1045" y="660" as="targetPoint" />
          </mxGeometry>
        </mxCell>
        <mxCell id="BWPA2W5dskU-JX_1lQMr-42" value="" style="endArrow=none;html=1;rounded=0;entryX=0.5;entryY=1;entryDx=0;entryDy=0;exitX=0.5;exitY=0;exitDx=0;exitDy=0;" edge="1" parent="1" source="BWPA2W5dskU-JX_1lQMr-39" target="BWPA2W5dskU-JX_1lQMr-2">
          <mxGeometry width="50" height="50" relative="1" as="geometry">
            <mxPoint x="862.4" y="790" as="sourcePoint" />
            <mxPoint x="847.6000000000003" y="654.3199999999999" as="targetPoint" />
          </mxGeometry>
        </mxCell>
        <mxCell id="BWPA2W5dskU-JX_1lQMr-43" value="" style="endArrow=none;html=1;rounded=0;entryX=0.25;entryY=1;entryDx=0;entryDy=0;exitX=0.5;exitY=0;exitDx=0;exitDy=0;" edge="1" parent="1" source="BWPA2W5dskU-JX_1lQMr-38" target="BWPA2W5dskU-JX_1lQMr-2">
          <mxGeometry width="50" height="50" relative="1" as="geometry">
            <mxPoint x="740" y="810" as="sourcePoint" />
            <mxPoint x="825" y="670" as="targetPoint" />
          </mxGeometry>
        </mxCell>
        <mxCell id="BWPA2W5dskU-JX_1lQMr-44" value="" style="endArrow=none;html=1;rounded=0;entryX=0;entryY=0.75;entryDx=0;entryDy=0;exitX=1.007;exitY=0.397;exitDx=0;exitDy=0;exitPerimeter=0;" edge="1" parent="1" source="BWPA2W5dskU-JX_1lQMr-36" target="BWPA2W5dskU-JX_1lQMr-2">
          <mxGeometry width="50" height="50" relative="1" as="geometry">
            <mxPoint x="600" y="780" as="sourcePoint" />
            <mxPoint x="795" y="640" as="targetPoint" />
          </mxGeometry>
        </mxCell>
        <mxCell id="BWPA2W5dskU-JX_1lQMr-45" value="" style="endArrow=none;html=1;rounded=0;entryX=0;entryY=0.5;entryDx=0;entryDy=0;exitX=1;exitY=0.5;exitDx=0;exitDy=0;" edge="1" parent="1" source="BWPA2W5dskU-JX_1lQMr-35" target="BWPA2W5dskU-JX_1lQMr-2">
          <mxGeometry width="50" height="50" relative="1" as="geometry">
            <mxPoint x="569.9999999999999" y="732.79" as="sourcePoint" />
            <mxPoint x="876.92" y="590" as="targetPoint" />
          </mxGeometry>
        </mxCell>
        <mxCell id="BWPA2W5dskU-JX_1lQMr-46" value="" style="endArrow=none;html=1;rounded=0;entryX=0;entryY=0.25;entryDx=0;entryDy=0;exitX=1;exitY=0.5;exitDx=0;exitDy=0;" edge="1" parent="1" source="BWPA2W5dskU-JX_1lQMr-37" target="BWPA2W5dskU-JX_1lQMr-2">
          <mxGeometry width="50" height="50" relative="1" as="geometry">
            <mxPoint x="599.9999999999959" y="610" as="sourcePoint" />
            <mxPoint x="910" y="535" as="targetPoint" />
          </mxGeometry>
        </mxCell>
        <mxCell id="BWPA2W5dskU-JX_1lQMr-48" style="edgeStyle=orthogonalEdgeStyle;rounded=0;orthogonalLoop=1;jettySize=auto;html=1;exitX=1;exitY=0.5;exitDx=0;exitDy=0;entryX=0.5;entryY=0;entryDx=0;entryDy=0;" edge="1" parent="1" target="BWPA2W5dskU-JX_1lQMr-5">
          <mxGeometry relative="1" as="geometry">
            <mxPoint x="1000" y="410" as="sourcePoint" />
            <mxPoint x="1130" y="360" as="targetPoint" />
          </mxGeometry>
        </mxCell>
        <mxCell id="BWPA2W5dskU-JX_1lQMr-49" value="ID DE LA TAREJA" style="ellipse;whiteSpace=wrap;html=1;" vertex="1" parent="1">
          <mxGeometry x="1285" y="320" width="110" height="70" as="geometry" />
        </mxCell>
        <mxCell id="BWPA2W5dskU-JX_1lQMr-50" value="ATRIBUTOS EMPLEADO" style="ellipse;whiteSpace=wrap;html=1;fillColor=#d5e8d4;strokeColor=#82b366;" vertex="1" parent="1">
          <mxGeometry x="1470" y="360" width="110" height="70" as="geometry" />
        </mxCell>
        <mxCell id="BWPA2W5dskU-JX_1lQMr-51" value="ATRIBUTOS VISITANTE" style="ellipse;whiteSpace=wrap;html=1;fillColor=#d5e8d4;strokeColor=#82b366;" vertex="1" parent="1">
          <mxGeometry x="1470" y="495" width="110" height="70" as="geometry" />
        </mxCell>
        <mxCell id="BWPA2W5dskU-JX_1lQMr-52" value="" style="endArrow=none;html=1;rounded=0;exitX=1;exitY=0.5;exitDx=0;exitDy=0;entryX=0;entryY=0.5;entryDx=0;entryDy=0;" edge="1" parent="1" source="BWPA2W5dskU-JX_1lQMr-4" target="BWPA2W5dskU-JX_1lQMr-51">
          <mxGeometry width="50" height="50" relative="1" as="geometry">
            <mxPoint x="1450" y="630" as="sourcePoint" />
            <mxPoint x="1500" y="580" as="targetPoint" />
          </mxGeometry>
        </mxCell>
        <mxCell id="BWPA2W5dskU-JX_1lQMr-53" value="" style="endArrow=none;html=1;rounded=0;exitX=0.75;exitY=0;exitDx=0;exitDy=0;entryX=0;entryY=1;entryDx=0;entryDy=0;" edge="1" parent="1" source="BWPA2W5dskU-JX_1lQMr-4" target="BWPA2W5dskU-JX_1lQMr-50">
          <mxGeometry width="50" height="50" relative="1" as="geometry">
            <mxPoint x="1380" y="480" as="sourcePoint" />
            <mxPoint x="1450.0000000000036" y="480" as="targetPoint" />
          </mxGeometry>
        </mxCell>
        <mxCell id="BWPA2W5dskU-JX_1lQMr-54" value="" style="endArrow=none;html=1;rounded=0;exitX=0.5;exitY=0;exitDx=0;exitDy=0;entryX=0.5;entryY=1;entryDx=0;entryDy=0;" edge="1" parent="1" source="BWPA2W5dskU-JX_1lQMr-4" target="BWPA2W5dskU-JX_1lQMr-49">
          <mxGeometry width="50" height="50" relative="1" as="geometry">
            <mxPoint x="1220" y="490" as="sourcePoint" />
            <mxPoint x="1335.9275383908584" y="409.6326388405455" as="targetPoint" />
          </mxGeometry>
        </mxCell>
        <mxCell id="BWPA2W5dskU-JX_1lQMr-55" value="ID DEL ÁREA" style="ellipse;whiteSpace=wrap;html=1;fillColor=#ffe6cc;strokeColor=#d79b00;" vertex="1" parent="1">
          <mxGeometry x="1500" y="845" width="110" height="70" as="geometry" />
        </mxCell>
        <mxCell id="BWPA2W5dskU-JX_1lQMr-56" value="PERMISOS DE ACCESO" style="ellipse;whiteSpace=wrap;html=1;fillColor=#ffe6cc;strokeColor=#d79b00;" vertex="1" parent="1">
          <mxGeometry x="1500" y="965" width="110" height="70" as="geometry" />
        </mxCell>
        <mxCell id="BWPA2W5dskU-JX_1lQMr-57" value="" style="endArrow=none;html=1;rounded=0;exitX=1;exitY=0.5;exitDx=0;exitDy=0;entryX=0;entryY=0.5;entryDx=0;entryDy=0;" edge="1" parent="1" source="BWPA2W5dskU-JX_1lQMr-3" target="BWPA2W5dskU-JX_1lQMr-55">
          <mxGeometry width="50" height="50" relative="1" as="geometry">
            <mxPoint x="1420" y="879.4100000000001" as="sourcePoint" />
            <mxPoint x="1490.0000000000036" y="879.4100000000001" as="targetPoint" />
          </mxGeometry>
        </mxCell>
        <mxCell id="BWPA2W5dskU-JX_1lQMr-58" value="" style="endArrow=none;html=1;rounded=0;exitX=0.75;exitY=1;exitDx=0;exitDy=0;entryX=0.012;entryY=0.385;entryDx=0;entryDy=0;entryPerimeter=0;" edge="1" parent="1" source="BWPA2W5dskU-JX_1lQMr-3" target="BWPA2W5dskU-JX_1lQMr-56">
          <mxGeometry width="50" height="50" relative="1" as="geometry">
            <mxPoint x="1370" y="960" as="sourcePoint" />
            <mxPoint x="1469.9999999999882" y="960" as="targetPoint" />
          </mxGeometry>
        </mxCell>
        <mxCell id="BWPA2W5dskU-JX_1lQMr-59" value="PERMISOS DE ACCESO" style="ellipse;whiteSpace=wrap;html=1;" vertex="1" parent="1">
          <mxGeometry x="460" y="390" width="110" height="70" as="geometry" />
        </mxCell>
        <mxCell id="BWPA2W5dskU-JX_1lQMr-60" value="ÁRERA DE TRABAJO" style="ellipse;whiteSpace=wrap;html=1;" vertex="1" parent="1">
          <mxGeometry x="460" y="280" width="110" height="70" as="geometry" />
        </mxCell>
        <mxCell id="BWPA2W5dskU-JX_1lQMr-61" value="ID DEL EMPLEADO" style="ellipse;whiteSpace=wrap;html=1;" vertex="1" parent="1">
          <mxGeometry x="460" y="170" width="110" height="70" as="geometry" />
        </mxCell>
        <mxCell id="BWPA2W5dskU-JX_1lQMr-62" value="PERMISOS DE ACCESO" style="ellipse;whiteSpace=wrap;html=1;fillColor=#dae8fc;strokeColor=#6c8ebf;" vertex="1" parent="1">
          <mxGeometry x="460" y="390" width="110" height="70" as="geometry" />
        </mxCell>
        <mxCell id="BWPA2W5dskU-JX_1lQMr-63" value="ÁREA DE TRABAJO" style="ellipse;whiteSpace=wrap;html=1;fillColor=#dae8fc;strokeColor=#6c8ebf;" vertex="1" parent="1">
          <mxGeometry x="460" y="280" width="110" height="70" as="geometry" />
        </mxCell>
        <mxCell id="BWPA2W5dskU-JX_1lQMr-64" value="ID DEL EMPLEADO" style="ellipse;whiteSpace=wrap;html=1;fillColor=#dae8fc;strokeColor=#6c8ebf;" vertex="1" parent="1">
          <mxGeometry x="460" y="170" width="110" height="70" as="geometry" />
        </mxCell>
        <mxCell id="BWPA2W5dskU-JX_1lQMr-65" value="NOMBRE" style="ellipse;whiteSpace=wrap;html=1;fillColor=#dae8fc;strokeColor=#6c8ebf;" vertex="1" parent="1">
          <mxGeometry x="660" y="170" width="110" height="70" as="geometry" />
        </mxCell>
        <mxCell id="BWPA2W5dskU-JX_1lQMr-66" value="TARJETA INTELIGENTE" style="rounded=0;whiteSpace=wrap;html=1;fillColor=#d5e8d4;strokeColor=#82b366;" vertex="1" parent="1">
          <mxGeometry x="1280" y="500" width="120" height="60" as="geometry" />
        </mxCell>
        <mxCell id="BWPA2W5dskU-JX_1lQMr-67" value="ID DE LA TAREJA" style="ellipse;whiteSpace=wrap;html=1;fillColor=#d5e8d4;strokeColor=#82b366;" vertex="1" parent="1">
          <mxGeometry x="1285" y="320" width="110" height="70" as="geometry" />
        </mxCell>
        <mxCell id="BWPA2W5dskU-JX_1lQMr-68" value="&lt;font style=&quot;font-size: 18px;&quot;&gt;&lt;b&gt;1:1&lt;/b&gt;&lt;/font&gt;" style="text;html=1;strokeColor=none;fillColor=none;align=center;verticalAlign=middle;whiteSpace=wrap;rounded=0;" vertex="1" parent="1">
          <mxGeometry x="1030" y="515" width="60" height="30" as="geometry" />
        </mxCell>
        <mxCell id="BWPA2W5dskU-JX_1lQMr-69" value="&lt;font style=&quot;font-size: 18px;&quot;&gt;&lt;b&gt;1:n&lt;/b&gt;&lt;/font&gt;" style="text;html=1;strokeColor=none;fillColor=none;align=center;verticalAlign=middle;whiteSpace=wrap;rounded=0;" vertex="1" parent="1">
          <mxGeometry x="1230" y="705" width="60" height="30" as="geometry" />
        </mxCell>
      </root>
    </mxGraphModel>
  </diagram>
</mxfile>
